<svg width="34" height="32" viewBox="0 0 34 32" fill="none" xmlns="http://www.w3.org/2000/svg">
<path d="M17 0C13.8326 0 11.0411 1.82634 10.1463 4.48C9.1979 4.10537 8.19579 3.90244 7.1579 3.90244C5.2595 3.90244 3.43886 4.56028 2.0965 5.73124C0.754133 6.90219 0 8.49036 0 10.1463C0 12.9873 2.21895 15.4693 5.36842 16.1873V27.3171H28.6316V16.1873C31.7811 15.4693 34 12.9873 34 10.1463C34 8.49036 33.2459 6.90219 31.9035 5.73124C30.5611 4.56028 28.7405 3.90244 26.8421 3.90244C25.8042 3.90244 24.8021 4.10537 23.8537 4.48C22.9589 1.82634 20.1674 0 17 0ZM16.1053 14.0488H17.8947V24.9756H16.1053V14.0488ZM10.7368 17.1707H12.5263V24.9756H10.7368V17.1707ZM21.4737 17.1707H23.2632V24.9756H21.4737V17.1707ZM5.36842 28.878V30.439C5.36842 30.853 5.55696 31.2501 5.89255 31.5428C6.22814 31.8355 6.6833 32 7.1579 32H26.8421C27.3167 32 27.7719 31.8355 28.1075 31.5428C28.4431 31.2501 28.6316 30.853 28.6316 30.439V28.878H5.36842Z" fill="#80986E"/>
</svg>
